# xmcd
#
# Track frame offsets: 
#        182
#        12527
#        24342
#        37965
#        48325
#        60517
#        72587
#        86380
#        98635
#        109392
#        119825
#        133902
#        148565
#        158695
#        170112
#        182425
#        195672
#        205875
#        217125
#        230735
#
# Disc length: 3226 seconds
#
# Revision: 3
# Processed by: cddbd v1.5.2PL0 Copyright (c) Steve Scherf et al.
# Submitted via: ExactAudioCopy v0.99pb5
#
DISCID=280c9814
DTITLE=Various Artist - Songs From The Golden West - 80 County and Western Hits
DTITLE=Various Artist - CD 2
DYEAR=2007
DGENRE=Country
TTITLE0=Bobby Bare - Roses are red (my love)
TTITLE1=Dave Dudley - Six days on the road
TTITLE2=Freddy Quinn - Green green grass of home
TTITLE3=Linda Manning - Bonjour, tristesse
TTITLE4=David Price - I need a friend
TTITLE5=Ronnie Rogers - It's good to know she's there
TTITLE6=Dave Dudley - I was country before Barbara Mandrell
TTITLE7=Bobby Bare - Lovin' her was easier
TTITLE8=George Kent - I'm in a bad mood tonight
TTITLE9=Jonny Hill - King of the road
TTITLE10=Barbara Perry - Why can't women have a good beerdrinking song
TTITLE11=Bobby Lord - Freedom
TTITLE12=Bud Logan - I was on my way
TTITLE13=Rick Key - The great Barnyard disaster
TTITLE14=Ferlin Husky - I only roll 'em
TTITLE15=Dave Dudley - I have been known not to go home
TTITLE16=Bobby Bare - West Virginia woman
TTITLE17=Rick Johnson - You would better take it
TTITLE18=Freddy Quinn - Oh, lonesome me
TTITLE19=David Price - The lonesome truck drivers waltz
EXTD=
EXTT0=
EXTT1=
EXTT2=
EXTT3=
EXTT4=
EXTT5=
EXTT6=
EXTT7=
EXTT8=
EXTT9=
EXTT10=
EXTT11=
EXTT12=
EXTT13=
EXTT14=
EXTT15=
EXTT16=
EXTT17=
EXTT18=
EXTT19=
PLAYORDER=
